<?xml version="1.0" encoding="UTF-8"?>
<svg xmlns="http://www.w3.org/2000/svg" width="24" height="24" viewBox="0 0 24 24" fill="none">
  <g clip-path="url(#clip0)">
    <path fill-rule="evenodd" clip-rule="evenodd" d="M11.4691 17.0309C11.3993 16.9612 11.3439 16.8784 11.3061 16.7873C11.2682 16.6962 11.2488 16.5985 11.2488 16.4999C11.2488 16.4012 11.2682 16.3035 11.3061 16.2124C11.3439 16.1213 11.3993 16.0385 11.4691 15.9689L15.4396 11.9999L11.4691 8.03088C11.3283 7.89005 11.2492 7.69904 11.2492 7.49988C11.2492 7.30072 11.3283 7.10971 11.4691 6.96888C11.6099 6.82805 11.801 6.74893 12.0001 6.74893C12.1993 6.74893 12.3903 6.82805 12.5311 6.96888L17.0311 11.4689C17.101 11.5385 17.1564 11.6213 17.1942 11.7124C17.232 11.8035 17.2515 11.9012 17.2515 11.9999C17.2515 12.0985 17.232 12.1962 17.1942 12.2873C17.1564 12.3784 17.101 12.4612 17.0311 12.5309L12.5311 17.0309C12.4615 17.1007 12.3787 17.1561 12.2876 17.1939C12.1965 17.2318 12.0988 17.2512 12.0001 17.2512C11.9015 17.2512 11.8038 17.2318 11.7127 17.1939C11.6216 17.1561 11.5388 17.1007 11.4691 17.0309Z" fill="#479FC8"></path>
    <path fill-rule="evenodd" clip-rule="evenodd" d="M6.75 11.9999C6.75 11.801 6.82902 11.6102 6.96967 11.4695C7.11032 11.3289 7.30109 11.2499 7.5 11.2499L15 11.2499C15.1989 11.2499 15.3897 11.3289 15.5303 11.4695C15.671 11.6102 15.75 11.801 15.75 11.9999C15.75 12.1988 15.671 12.3896 15.5303 12.5302C15.3897 12.6709 15.1989 12.7499 15 12.7499L7.5 12.7499C7.30109 12.7499 7.11032 12.6709 6.96967 12.5302C6.82902 12.3896 6.75 12.1988 6.75 11.9999Z" fill="#479FC8"></path>
  </g>
  <defs>
    <clipPath id="clip0">
      <rect width="24" height="24" fill="white" transform="translate(0 23.9999) rotate(-90)"></rect>
    </clipPath>
  </defs>
</svg>
