<?xml version="1.0" encoding="UTF-8"?>
<svg xmlns="http://www.w3.org/2000/svg" width="24" height="24" viewBox="0 0 24 24" fill="none">
  <path d="M7.00001 10.4999C6.99925 10.3683 7.02447 10.2379 7.07424 10.116C7.124 9.99419 7.19733 9.88338 7.29001 9.78994C7.38297 9.69621 7.49357 9.62182 7.61543 9.57105C7.73729 9.52028 7.868 9.49414 8.00001 9.49414C8.13202 9.49414 8.26273 9.52028 8.38459 9.57105C8.50645 9.62182 8.61705 9.69621 8.71001 9.78994L12 13.0999L15.31 9.91994C15.4974 9.73369 15.7508 9.62915 16.015 9.62915C16.2792 9.62915 16.5326 9.73369 16.72 9.91994C16.8137 10.0129 16.8881 10.1235 16.9389 10.2454C16.9897 10.3672 17.0158 10.4979 17.0158 10.6299C17.0158 10.762 16.9897 10.8927 16.9389 11.0145C16.8881 11.1364 16.8137 11.247 16.72 11.3399L12.72 15.1999C12.5331 15.3832 12.2818 15.4858 12.02 15.4858C11.7583 15.4858 11.5069 15.3832 11.32 15.1999L7.32001 11.1999C7.22308 11.1102 7.14489 11.0021 7.08997 10.882C7.03504 10.7618 7.00447 10.632 7.00001 10.4999Z" fill="#5F738C"></path>
</svg>
