<?xml version="1.0" encoding="UTF-8"?>
<svg xmlns="http://www.w3.org/2000/svg" id="Layer_1" data-name="Layer 1" viewBox="0 0 377.41 377.41">
  <defs>
    <style>.cls-1{fill:#b6e3ee;}.cls-2{fill:#fff;}.cls-3{fill:#0c7296;}</style>
  </defs>
  <circle class="cls-1" cx="248.26" cy="117.26" r="75.02"></circle>
  <path class="cls-2" d="M285.81,112.54V103.8h-9.68V81.33h-8.75V103.8H246.53L232.3,81.33H222.17V103.8H210.7v8.74h11.47V124H210.7v8.75h11.47V153.2h8.74V132.78H254l12.77,20.42h9.39V132.78h9.68V124h-9.68V112.54Zm-55.64-19.7.32-.1c1.68,3.61,3.62,7.32,5.72,11.06h-5.55C230.54,100.05,230.38,96.48,230.17,92.84Zm.74,31.19v-1.54c0-3.58,0-6.86-.06-9.95h10.48q1.29,2.1,2.59,4.19l4.57,7.3Zm37.54,16.9-.22.11q-1.87-4.06-4.1-8.26h3.73C268,135.48,268.2,138.17,268.45,140.93Zm-.93-16.9h-8.3c-1.22-2.06-2.51-4.17-3.89-6.34l-3.26-5.15h15.31C267.39,116.64,267.43,120.41,267.52,124Z"></path>
  <path class="cls-3" d="M211.21,73.28c-.62,0-1.31,0-2.06.06a53.23,53.23,0,0,0-5.77.32c-35.1,4.51-59.64,23.54-73,56.54a8.49,8.49,0,0,1-5.34,5.22,87.89,87.89,0,0,0-46,39.47,85.64,85.64,0,0,0-9,59.34,87.35,87.35,0,0,0,32.66,51.66,85.33,85.33,0,0,0,58.52,17c35-2.86,60-21.2,74.25-54.52a13.19,13.19,0,0,1,8-7.91,86.42,86.42,0,0,0,52.68-100C286.93,100.85,252.75,73.86,211.21,73.28ZM155.29,293.6h-.42a77.2,77.2,0,0,1-76.76-77.37A77,77,0,0,1,155,139.85h.47a76.93,76.93,0,0,1,76.43,77.24C231.64,259.36,197.31,293.6,155.29,293.6Zm84.47-96.37c-9.45-33.9-30.38-55.15-64-65l-2.53-.74,1.39-2.24c3.15-5,9.13-9.83,16.42-13.18a49.27,49.27,0,0,1,25.88-4.33c21.44,2.41,39.63,19.15,43.25,39.8,4.07,23.2-8.52,41-17.41,46.8l-2.28,1.48Zm4.69,32-2.78,1.18v-3c0-1.15,0-2.31,0-3.45,0-3.2,0-6.51.09-9.76a5.93,5.93,0,0,1,2.52-4.19c15.22-10.38,24-24.54,26-42.07,2.5-21.76-4.84-39.66-21.81-53.22a58.18,58.18,0,0,0-44.93-12.43,59.14,59.14,0,0,0-40.26,25.07A5.68,5.68,0,0,1,157.9,130c-3.2-.12-6.45-.1-9.61-.07h-6.7l1-2.71c7-18.36,33.35-46.55,74.13-44.05A76.79,76.79,0,0,1,288,149.81C293,187.71,269.86,218.44,244.45,229.2Z"></path>
  <path class="cls-3" d="M256.8,263.2l9.22,9.2-4.41,4.65a24.71,24.71,0,0,0,18.77-7.76,25.31,25.31,0,0,0,7.22-18.06c0-5,0-9.95,0-15.16h13.57c.46,14,1.5,28.07-8.36,40-7.3,8.8-16.49,13.88-27.94,14.75-.94.07-1.87.2-2.81.3l-.48.74,4.84,3.35-10,9.79L235.7,284Z"></path>
  <path class="cls-3" d="M79.65,140.5H66.4c-.17-.2-.38-.33-.38-.45.23-7.68-.44-15.52.9-23C70.07,99.35,84.64,87,102.51,85.63c.86-.07,1.71-.19,3.14-.36l-4.39-4.63c3.28-3.26,6.42-6.37,9.64-9.58.29.25.71.55,1.07.9,6.77,6.72,13.53,13.45,20.12,20l-21.36,21.38L101,103.51l4.75-3.05-.66-.94a24.16,24.16,0,0,0-3.71,0A25.77,25.77,0,0,0,79.66,124.8C79.59,129.94,79.65,135.09,79.65,140.5Z"></path>
  <path class="cls-3" d="M192.56,212v-8.74h-9.69V180.79h-8.74v22.47H153.28L139,180.79H128.91v22.47H117.44V212h11.47v11.5H117.44v8.74h11.47v20.42h8.75V232.24h23.05l12.78,20.42h9.38V232.24h9.69V223.5h-9.69V212Zm-55.65-19.69.32-.11c1.68,3.62,3.62,7.32,5.72,11.06h-5.54C137.29,199.52,137.12,196,136.91,192.31Zm.75,31.19V222c0-3.58,0-6.86-.06-9.95h10.48q1.28,2.1,2.59,4.19l4.57,7.31Zm37.53,16.9-.21.1c-1.26-2.71-2.62-5.45-4.11-8.26h3.73C174.75,234.94,175,237.63,175.19,240.4Zm-.93-16.9H166c-1.23-2.07-2.52-4.18-3.89-6.35L158.81,212h15.32C174.13,216.1,174.17,219.88,174.26,223.5Z"></path>
</svg>
